<svg xmlns="http://www.w3.org/2000/svg" xmlns:xlink="http://www.w3.org/1999/xlink" viewBox="0 0 882.7 882.7"><defs><linearGradient id="a" x1="968.86" y1="480.7" x2="968.86" y2="519.56" gradientUnits="userSpaceOnUse"><stop offset="0.25" stop-color="#fff"/><stop offset="1" stop-color="#d1ecfc"/></linearGradient><linearGradient id="b" x1="1411.29" y1="850.86" x2="1411.29" y2="907.05" xlink:href="#a"/><linearGradient id="c" x1="1693.61" y1="687.83" x2="1693.61" y2="737.81" xlink:href="#a"/><linearGradient id="d" x1="1449.83" y1="70.21" x2="1449.83" y2="120.32" xlink:href="#a"/><linearGradient id="e" x1="1662.94" y1="501.17" x2="1662.94" y2="611.73" xlink:href="#a"/><linearGradient id="f" x1="1577.36" y1="168.32" x2="1577.36" y2="365.71" xlink:href="#a"/><linearGradient id="g" x1="1634.67" y1="323.88" x2="1634.67" y2="407.55" xlink:href="#a"/><linearGradient id="h" x1="1025.61" y1="62.05" x2="1025.61" y2="178.58" xlink:href="#a"/><linearGradient id="i" x1="1756.46" y1="104.77" x2="1756.46" y2="176.18" xlink:href="#a"/><linearGradient id="j" x1="932.37" y1="104.92" x2="932.37" y2="176.14" xlink:href="#a"/><linearGradient id="k" x1="1253.46" y1="162.47" x2="1253.46" y2="261.99" xlink:href="#a"/><linearGradient id="l" x1="1025.61" y1="329.79" x2="1025.61" y2="436.23" xlink:href="#a"/><linearGradient id="m" x1="1071.42" y1="697.25" x2="1071.42" y2="869.47" xlink:href="#a"/><linearGradient id="n" x1="1071.42" y1="559.53" x2="1071.42" y2="651.68" xlink:href="#a"/><linearGradient id="o" x1="1344.03" y1="651.68" x2="1344.03" y2="721.28" xlink:href="#a"/><linearGradient id="p" x1="13449.08" y1="312.84" x2="13449.08" y2="365.71" gradientTransform="matrix(-1, 0, 0, 1, 14633.59, 0)" xlink:href="#a"/><linearGradient id="q" x1="1362.33" y1="432.56" x2="1362.33" y2="556.45" xlink:href="#a"/><linearGradient id="r" x1="1654.49" y1="53.15" x2="1654.49" y2="86.17" xlink:href="#a"/><linearGradient id="s" x1="1220.28" y1="53.15" x2="1220.28" y2="90.19" xlink:href="#a"/><linearGradient id="t" x1="1220.26" y1="866.46" x2="1220.26" y2="935.86" xlink:href="#a"/><linearGradient id="u" x1="1655.72" y1="845.23" x2="1655.72" y2="935.86" xlink:href="#a"/><linearGradient id="v" x1="13467.32" y1="712.82" x2="13467.32" y2="829.89" gradientTransform="matrix(-1, 0, 0, 1, 14984.53, 0)" xlink:href="#a"/></defs><title>clouds</title><rect width="882.7" height="882.7" style="fill:#b9e2fa"/><path d="M1008.5,503.41s-3.59-7-8.41-8.81S988,494,988,494l-12-7.87s-13.85-8.47-28.89-4.24S930,497.62,930,497.62s-7.25-.79-12.27,2.5S914.45,516,930,517,947.71,514,947.71,514s6.63,4.24,22.27,5.44,32.94-4.91,32.94-4.91,15.9,2.61,19.18-4.24S1008.5,503.41,1008.5,503.41Z" transform="translate(-902.68 -53.15)" style="fill:url(#a)"/><path d="M1365.17,886c0.19-6.41,6.27-11.42,13.57-11.2H1379a7.47,7.47,0,0,1-.13-0.79,8.19,8.19,0,0,1,7.47-8.84,8.71,8.71,0,0,1,5.45,1.15,23.6,23.6,0,0,1,22.4-15.46c13.06,0,23.65,10.2,23.65,22.78a22.28,22.28,0,0,1-.12,2.25,14.81,14.81,0,0,1,5.55-1.07c7.8,0,14.13,6,14.13,13.32s-6.32,13.32-14.13,13.32a14.72,14.72,0,0,1-6.87-1.68c-5.06,4.39-13.58,7.27-23.24,7.27-12.19,0-22.56-4.59-26.45-11l-0.58-.21a14.42,14.42,0,0,1-8.09,2.13C1370.75,897.76,1365,892.39,1365.17,886Z" transform="translate(-902.68 -53.15)" style="fill:url(#b)"/><path d="M1744.89,716.07c-0.22-7.4-6.82-11-15.27-10.74-0.11,0,.48-6.85-9.47-9.9-8.92-2.73-14.86,4.88-14.86,4.88s-8.65-14.46-25.37-12.25S1661,704.4,1661,704.4s-8.85-2.54-14.71,2.48-5.48,18.92,3,22.4,14.67-.77,14.67-0.77,1.55,10,27,9.27,28.58-13,28.58-13,6.93,5.29,10.41,5.19C1738.44,729.69,1745.11,723.48,1744.89,716.07Z" transform="translate(-902.68 -53.15)" style="fill:url(#c)"/><path d="M1501,99.49s-4.63-9-10.85-11.36-15.53-.78-15.53-0.78L1459.05,77.2s-17.86-10.92-37.26-5.46S1399.67,92,1399.67,92s-9.35-1-15.82,3.22-4.17,20.48,15.87,21.78,22.85-3.93,22.85-3.93,8.54,5.46,28.72,7,42.47-6.33,42.47-6.33,20.51,3.36,24.74-5.47S1501,99.49,1501,99.49Z" transform="translate(-902.68 -53.15)" style="fill:url(#d)"/><path d="M1575,556.88a26.12,26.12,0,0,1,3.14.19c0.84-8.65,8.27-16.49,19.19-19.11a31.41,31.41,0,0,1,15.91.3c4.11-21,26.32-37.1,53.11-37.1,29.57,0,53.56,19.57,53.79,43.78,0.41-.07.83-0.12,1.25-0.16,7.69-.74,14.7,3,17,8.71a33.22,33.22,0,0,1,6.33-.61c14.86,0,26.91,9.68,26.91,21.62s-12,21.62-26.91,21.62a31.79,31.79,0,0,1-14-3.17c-6.87,10.89-27.11,18.79-51,18.79-24.7,0-45.48-8.43-51.65-19.88a26,26,0,0,1-19.16,7.32c-9.54-.24-17.62-5.2-21.34-12.21a24.16,24.16,0,0,1-12.51,3.36c-11.49,0-20.81-7.49-20.81-16.72S1563.55,556.88,1575,556.88Z" transform="translate(-902.68 -53.15)" style="fill:url(#e)"/><path d="M1734.27,267.78a46.55,46.55,0,0,0-5.61.34c-1.5-15.45-14.77-29.44-34.26-34.11a56.12,56.12,0,0,0-28.41.54c-7.33-37.54-47-66.23-94.82-66.23-52.79,0-95.63,34.94-96,78.16-0.74-.12-1.48-0.22-2.24-0.3-13.74-1.33-26.24,5.4-30.28,15.54a59.37,59.37,0,0,0-11.3-1.08c-26.53,0-48,17.28-48,38.59s21.5,38.59,48,38.59a56.8,56.8,0,0,0,25-5.66c12.26,19.45,48.39,33.54,91.06,33.54,44.09,0,81.2-15,92.2-35.49,8.23,8.29,20.57,13.42,34.2,13.07,17-.43,31.46-9.29,38.1-21.8a43.19,43.19,0,0,0,22.33,6c20.52,0,37.16-13.36,37.16-29.85S1754.79,267.78,1734.27,267.78Z" transform="translate(-902.68 -53.15)" style="fill:url(#f)"/><path d="M1720.52,371.16c-0.37-12.4-11.42-18.41-25.56-18-0.18,0,.81-11.48-15.86-16.57-14.94-4.57-24.87,8.17-24.87,8.17s-14.48-24.2-42.48-20.51-31.7,27.35-31.7,27.35-14.81-4.26-24.62,4.15-9.17,31.68,5.05,37.5,24.57-1.29,24.57-1.29,2.59,16.81,45.26,15.52,47.84-21.8,47.84-21.8,11.6,8.86,17.43,8.68C1709.73,393.94,1720.89,383.55,1720.52,371.16Z" transform="translate(-902.68 -53.15)" style="fill:url(#g)"/><path d="M936.33,113.17c0.76,0,1.51,0,2.26.11-0.76-11.64,7.2-22.81,19.53-26.28,11.21-3.15,22.64,1,28.7,9.56A17,17,0,0,1,1009.1,92c6.12-17.39,23.21-29.92,43.34-29.92,25.27,0,45.76,19.73,45.76,44.06a43.1,43.1,0,0,1-.22,4.36,28.68,28.68,0,0,1,10.74-2.07c15.09,0,27.33,11.54,27.33,25.78S1123.81,160,1108.71,160a28.43,28.43,0,0,1-14.25-3.78c-7,13-27.54,22.4-51.82,22.4-25.09,0-46.2-10-52.47-23.71A24.48,24.48,0,0,1,949,149a21.88,21.88,0,0,1-12.71,4c-11.68,0-21.14-8.93-21.14-19.94S924.65,113.17,936.33,113.17Z" transform="translate(-902.68 -53.15)" style="fill:url(#h)"/><path d="M1782.44,104.77c-16.6,0-30.05,13-30.05,28.94a28.56,28.56,0,0,0,.15,2.86,18.84,18.84,0,0,0-7.05-1.36c-9.91,0-17.95,7.58-17.95,16.93s8,16.93,17.95,16.93a18.7,18.7,0,0,0,8.74-2.14c6.42,5.58,17.25,9.24,29.53,9.24,0.55,0,1.09,0,1.63,0V104.92C1784.42,104.83,1783.44,104.77,1782.44,104.77Z" transform="translate(-902.68 -53.15)" style="fill:url(#i)"/><path d="M934.66,162.2l0.74-.27a18.33,18.33,0,0,0,10.27,2.71c9.28-.28,16.61-7.1,16.37-15.24s-8-14.51-17.25-14.24l-0.35,0a9.65,9.65,0,0,0,.17-1c0.63-5.54-3.62-10.56-9.49-11.23a11.06,11.06,0,0,0-6.92,1.47,29.87,29.87,0,0,0-25.52-19.5v71.21C917.45,175.74,929.89,170.06,934.66,162.2Z" transform="translate(-902.68 -53.15)" style="fill:url(#j)"/><path d="M1171.78,224.68c0.34-11.34,11.1-20.23,24-19.84l0.49,0a13.28,13.28,0,0,1-.23-1.4c-0.88-7.72,5-14.72,13.23-15.65a15.4,15.4,0,0,1,9.65,2c5.6-15.92,21.24-27.39,39.67-27.39,23.13,0,41.89,18.06,41.89,40.34a39.79,39.79,0,0,1-.21,4,26.26,26.26,0,0,1,9.83-1.89c13.82,0,25,10.56,25,23.59s-11.2,23.6-25,23.6a26.06,26.06,0,0,1-12.18-3c-9,7.78-24,12.88-41.16,12.88-21.59,0-40-8.13-46.85-19.48l-1-.37a25.52,25.52,0,0,1-14.32,3.78C1181.66,245.53,1171.44,236,1171.78,224.68Z" transform="translate(-902.68 -53.15)" style="fill:url(#k)"/><path d="M941,383.42a25.25,25.25,0,0,1,3,.18c0.81-8.33,8-15.88,18.47-18.39a30.27,30.27,0,0,1,15.32.29c4-20.24,25.34-35.71,51.13-35.71,28.47,0,51.56,18.84,51.78,42.15,0.4-.06.8-0.12,1.21-0.16,7.41-.71,14.15,2.91,16.33,8.38a32,32,0,0,1,6.09-.58c14.3,0,25.9,9.32,25.9,20.81s-11.6,20.81-25.9,20.81a30.63,30.63,0,0,1-13.51-3.05c-6.61,10.49-26.09,18.09-49.1,18.09-23.77,0-43.78-8.11-49.72-19.14a25.08,25.08,0,0,1-18.44,7.05c-9.18-.23-17-5-20.54-11.75a23.29,23.29,0,0,1-12,3.23c-11.07,0-20-7.21-20-16.1S929.93,383.42,941,383.42Z" transform="translate(-902.68 -53.15)" style="fill:url(#l)"/><path d="M939.45,772.8c1.13,0,2.24.06,3.33,0.17-1.12-17.21,10.64-33.71,28.87-38.83,16.57-4.66,33.47,1.5,42.42,14.13a24.62,24.62,0,0,1,17.37-10.09,24.88,24.88,0,0,1,15.57,3.3c9-25.71,34.3-44.22,64.05-44.22,37.35,0,67.63,29.16,67.63,65.12a63.64,63.64,0,0,1-.33,6.44,42.37,42.37,0,0,1,15.87-3.05c22.31,0,40.39,17.06,40.39,38.1s-18.08,38.1-40.39,38.1a42,42,0,0,1-21.07-5.59c-10.31,19.2-40.7,33.11-76.59,33.11-37.08,0-68.29-14.85-77.54-35a36.19,36.19,0,0,1-60.8-8.61,32.34,32.34,0,0,1-18.79,5.92c-17.26,0-31.25-13.19-31.25-29.47S922.2,772.8,939.45,772.8Z" transform="translate(-902.68 -53.15)" style="fill:url(#m)"/><path d="M1147,617.13c-0.31-10.5-10.28-18.73-22.26-18.37l-0.46,0a12.17,12.17,0,0,0,.22-1.3c0.81-7.14-4.67-13.63-12.25-14.49a14.27,14.27,0,0,0-8.93,1.89c-5.19-14.74-19.67-25.36-36.73-25.36-21.42,0-38.79,16.72-38.79,37.35a36.17,36.17,0,0,0,.19,3.69,24.31,24.31,0,0,0-9.1-1.75c-12.79,0-23.16,9.78-23.16,21.85s10.37,21.85,23.16,21.85a24.11,24.11,0,0,0,11.27-2.76c8.29,7.2,22.27,11.93,38.11,11.93,20,0,37-7.52,43.37-18l1-.34a23.63,23.63,0,0,0,13.26,3.5C1137.9,636.44,1147.36,627.63,1147,617.13Z" transform="translate(-902.68 -53.15)" style="fill:url(#n)"/><path d="M1399.37,686.75a16.42,16.42,0,0,0-2,.12c-0.53-5.45-5.21-10.38-12.08-12a19.77,19.77,0,0,0-10,.19c-2.58-13.24-16.57-23.35-33.44-23.35-18.62,0-33.72,12.32-33.86,27.56l-0.79-.1c-4.84-.47-9.25,1.9-10.68,5.48a20.92,20.92,0,0,0-4-.38c-9.35,0-16.94,6.09-16.94,13.61s7.58,13.61,16.94,13.61a20,20,0,0,0,8.83-2c4.32,6.86,17.06,11.83,32.11,11.83,15.55,0,28.63-5.3,32.51-12.52a16.4,16.4,0,0,0,12.06,4.61c6-.15,11.09-3.28,13.43-7.69a15.23,15.23,0,0,0,7.88,2.12c7.24,0,13.1-4.71,13.1-10.53S1406.6,686.75,1399.37,686.75Z" transform="translate(-902.68 -53.15)" style="fill:url(#o)"/><path d="M1130.26,342.71c0.23-7.83,7.22-11.63,16.16-11.37,0.11,0-.51-7.25,10-10.47,9.44-2.89,15.72,5.16,15.72,5.16s9.15-15.29,26.84-13,20,17.28,20,17.28,9.36-2.69,15.56,2.62,5.79,20-3.19,23.7-15.52-.82-15.52-0.82-1.63,10.62-28.6,9.81S1157,351.89,1157,351.89s-7.33,5.6-11,5.49C1137.09,357.11,1130,350.55,1130.26,342.71Z" transform="translate(-902.68 -53.15)" style="fill:url(#p)"/><path d="M1457.26,486.91c-0.81,0-1.61,0-2.4.12,0.8-12.38-7.65-24.25-20.77-27.94-11.92-3.35-24.07,1.08-30.51,10.16a18,18,0,0,0-23.7-4.89c-6.51-18.49-24.67-31.81-46.08-31.81-26.87,0-48.65,21-48.65,46.85a45.66,45.66,0,0,0,.24,4.63,30.49,30.49,0,0,0-11.42-2.2c-16,0-29.06,12.27-29.06,27.41s13,27.41,29.06,27.41a30.21,30.21,0,0,0,15.16-4c7.42,13.81,29.27,23.82,55.09,23.82,26.67,0,49.12-10.68,55.78-25.2a26,26,0,0,0,43.74-6.19,23.28,23.28,0,0,0,13.51,4.26c12.42,0,22.48-9.49,22.48-21.2S1469.67,486.91,1457.26,486.91Z" transform="translate(-902.68 -53.15)" style="fill:url(#q)"/><path d="M1585.31,73.87a32.36,32.36,0,0,0,15.13-3.71c11.13,9.66,29.87,16,51.13,16,26.81,0,49.63-10.09,58.2-24.2,0.43-.15.86-0.3,1.29-0.46a31.72,31.72,0,0,0,17.79,4.69c10.56-.31,19.66-5.52,24.54-13H1555.59C1559.49,65.15,1571.32,73.87,1585.31,73.87Z" transform="translate(-902.68 -53.15)" style="fill:url(#r)"/><path d="M1135.66,69.58a23.29,23.29,0,0,0,12-3.23c3.58,6.74,11.36,11.52,20.54,11.75a25.08,25.08,0,0,0,18.44-7.05c5.94,11,25.94,19.14,49.72,19.14,23,0,42.49-7.6,49.1-18.09A30.63,30.63,0,0,0,1299,75.16c14.3,0,25.9-9.32,25.9-20.81,0-.4,0-0.8,0-1.2H1115.64c0,0.11,0,.22,0,0.33C1115.63,62.38,1124.6,69.58,1135.66,69.58Z" transform="translate(-902.68 -53.15)" style="fill:url(#s)"/><path d="M1299,916.24a32.16,32.16,0,0,0-6.09.58c-2.18-5.47-8.92-9.1-16.33-8.38-0.41,0-.81.09-1.21,0.16-0.22-23.31-23.32-42.15-51.78-42.15-25.79,0-47.18,15.47-51.13,35.71a30.26,30.26,0,0,0-15.32-.29c-10.51,2.52-17.66,10.06-18.47,18.39a25,25,0,0,0-3-.18c-10.93,0-19.8,7-20,15.77h209.24C1324.11,924.92,1312.83,916.24,1299,916.24Z" transform="translate(-902.68 -53.15)" style="fill:url(#t)"/><path d="M1757.19,922.52c-0.42-14.09-13.79-25.13-29.87-24.65l-0.61,0a16.67,16.67,0,0,0,.29-1.74c1.09-9.59-6.27-18.29-16.43-19.44a19.15,19.15,0,0,0-12,2.54c-7-19.78-26.39-34-49.28-34-28.74,0-52,22.43-52,50.11a48.87,48.87,0,0,0,.26,5,32.58,32.58,0,0,0-12.21-2.35c-17.17,0-31.08,13.13-31.08,29.31a27.75,27.75,0,0,0,1.36,8.6h197.79A23.1,23.1,0,0,0,1757.19,922.52Z" transform="translate(-902.68 -53.15)" style="fill:url(#u)"/><path d="M1421.14,786c0.4-13.34,13.06-23.79,28.28-23.34l0.58,0a15.17,15.17,0,0,1-.28-1.65c-1-9.08,5.94-17.32,15.56-18.41a18.12,18.12,0,0,1,11.35,2.4c6.59-18.73,25-32.21,46.66-32.21,27.21,0,49.28,21.24,49.28,47.45a46.2,46.2,0,0,1-.24,4.69,30.9,30.9,0,0,1,11.56-2.22c16.25,0,29.42,12.43,29.42,27.75s-13.17,27.76-29.42,27.76a30.64,30.64,0,0,1-14.32-3.51c-10.53,9.15-28.29,15.15-48.41,15.15-25.39,0-47-9.56-55.1-22.92l-1.22-.44A30,30,0,0,1,1448,811C1432.76,810.53,1420.74,799.34,1421.14,786Z" transform="translate(-902.68 -53.15)" style="fill:url(#v)"/></svg>